<?xml version="1.0" encoding="UTF-8" standalone="no"?>
<!-- Created with Inkscape (http://www.inkscape.org/) -->

<svg
   width="201.14418mm"
   height="70.104828mm"
   viewBox="0 0 201.14418 70.104828"
   version="1.1"
   id="svg1"
   xml:space="preserve"
   xmlns="http://www.w3.org/2000/svg"
   xmlns:svg="http://www.w3.org/2000/svg"><defs
     id="defs1"><rect
       x="140.90909"
       y="590.90912"
       width="434.84848"
       height="81.818184"
       id="rect6-1" /></defs><g
     id="layer1"
     transform="translate(-5.7206292,-136.40012)"><rect
       style="opacity:1;fill:#1a1a1a;fill-opacity:0;stroke:none;stroke-width:2.93164;stroke-linecap:round;stroke-linejoin:round;stroke-dasharray:none;stroke-opacity:1"
       id="rect7"
       width="201.14418"
       height="70.104836"
       x="5.7206297"
       y="136.40012" /><path
       class="cls-3"
       d="m 90.144912,154.31344 c 2.52845,-0.10285 5.007253,0.71988 6.971863,2.31567 l -1.3582,2.00362 c -1.5497,-1.18799 -3.450473,-1.82985 -5.404443,-1.82276 -4.50369,0 -7.21655,3.28025 -7.21655,7.38323 0,4.44695 3.04266,7.51798 7.06407,7.51798 2.0568,-0.0638 4.003673,-0.93266 5.422163,-2.42562 v -2.73413 h -3.117123 v -2.37951 h 5.560463 v 9.67053 h -2.36178 v -2.04262 h -0.0284 c -1.57097,1.53551 -3.691613,2.37597 -5.886723,2.33341 -5.15974,0 -9.42229,-4.0746 -9.42229,-9.93295 -0.12767,-5.33351 4.09588,-9.75919 9.42939,-9.88685 0.11702,0 0.23405,0 0.35107,0"
       id="path239-3-8"
       style="fill:#000000;fill-opacity:1;stroke-width:0.354622" /><path
       class="cls-3"
       d="m 104.17019,154.64323 h 2.68804 v 12.38339 c 0,2.92563 1.89722,4.63845 4.82994,4.63845 2.93273,0 4.88669,-1.71282 4.88669,-4.69519 v -12.32665 h 2.73414 v 12.38339 c 0,4.25546 -3.06394,7.11017 -7.54635,7.11017 -4.48242,0 -7.54635,-2.85116 -7.54635,-7.11017 l -0.0461,-12.38693 z"
       id="path241-7-7"
       style="fill:#000000;fill-opacity:1;stroke-width:0.354622" /><path
       class="cls-3"
       d="m 132.91583,163.82084 c 1.75892,0.12412 3.28025,-1.20216 3.40437,-2.96109 0.0106,-0.17022 0.0106,-0.34398 -0.007,-0.5142 0.078,-1.17734 -0.51066,-2.29795 -1.52133,-2.9079 -0.82627,-0.3688 -1.7341,-0.52129 -2.63484,-0.43618 h -3.09939 v 6.81583 h 3.85473 z m -6.52504,-9.17761 h 5.86899 c 1.20926,-0.0816 2.42561,0.0674 3.58168,0.43619 2.07454,0.86173 3.36891,2.9469 3.22706,5.18457 0.10638,2.2944 -1.28728,4.39376 -3.44338,5.18457 v 0.0532 c 0.21632,0.26951 0.40782,0.5603 0.57449,0.86527 l 4.05687,7.47188 h -3.04265 l -4.04624,-7.62791 h -4.10297 v 7.62791 h -2.73413 l 0.0638,-19.20276 z"
       id="path243-9-8"
       style="fill:#000000;fill-opacity:1;stroke-width:0.354622" /><path
       class="cls-3"
       d="m 154.49811,171.62961 c 3.91148,0 7.05342,-3.25542 7.05342,-7.57472 0,-3.90438 -3.16677,-7.07115 -7.07115,-7.07115 -3.90439,0 -7.07116,3.16677 -7.07116,7.07115 0,4.3193 3.18096,7.61018 7.09243,7.61018 v -0.0355 z m 0,-17.31617 c 5.33351,-0.0922 9.73436,4.15971 9.82302,9.49322 0,0.0957 0,0.18795 0,0.2837 0,5.43635 -4.40795,9.84429 -9.8443,9.84429 -5.43635,0 -9.8443,-4.40794 -9.8443,-9.84429 -0.0496,-5.35125 4.24482,-9.73082 9.59607,-9.78047 0.0887,0 0.17731,0 0.26596,0"
       id="path245-0-7"
       style="fill:#000000;fill-opacity:1;stroke-width:0.354622" /><path
       class="cls-3"
       d="m 177.42795,171.47358 c 1.67381,0.14185 3.14549,-1.10287 3.28734,-2.78023 0.0142,-0.15604 0.0142,-0.31562 0,-0.4752 0.0993,-1.71991 -1.21281,-3.19159 -2.93272,-3.29089 -0.12766,-0.007 -0.25887,-0.007 -0.38654,0 h -4.28383 v 6.54277 h 4.3122 z m -0.3298,-8.76625 c 1.51069,0.0532 2.77669,-1.1277 2.82988,-2.63484 0,-0.0922 0,-0.18086 -0.004,-0.27306 0.10639,-1.45749 -0.98584,-2.72349 -2.44334,-2.82988 -0.14185,-0.0106 -0.28724,-0.0106 -0.42909,0 h -3.96467 v 5.73424 h 4.01077 z m -6.6988,-8.06764 h 6.6988 c 3.23415,0 5.56756,1.82275 5.56756,4.88668 0.0638,1.71992 -0.86528,3.32636 -2.3866,4.1278 v 0.0532 c 1.97879,0.6596 3.27315,2.56392 3.15258,4.64909 0,3.64551 -2.79796,5.46827 -6.17041,5.46827 h -6.86193 v -19.18149 z"
       id="path247-2-7"
       style="fill:#000000;fill-opacity:1;stroke-width:0.354622" /><rect
       class="cls-3"
       x="189.77943"
       y="154.64325"
       width="2.6880324"
       height="19.202766"
       id="rect251-3-4"
       style="fill:#000000;fill-opacity:1;stroke-width:0.354621" /><path
       style="fill:#000000;fill-opacity:1;stroke:#000000;stroke-width:3.8;stroke-linecap:round;stroke-linejoin:round;stroke-dasharray:none;stroke-opacity:1"
       d="m 31.939782,164.59271 v 15.76083"
       id="path2-4" /><path
       style="fill:#000000;fill-opacity:1;stroke:#000000;stroke-width:3.8;stroke-linecap:round;stroke-linejoin:round;stroke-dasharray:none;stroke-opacity:1"
       d="m 41.488655,158.22679 v 24.7129"
       id="path3-9" /><path
       style="fill:#000000;fill-opacity:1;stroke:#000000;stroke-width:2.5;stroke-linecap:round;stroke-linejoin:round;stroke-dasharray:none;stroke-opacity:1"
       d="M 67.948605,175.16622 H 24.137966"
       id="path3-3-1" /><path
       style="fill:#000000;fill-opacity:1;stroke:#000000;stroke-width:3.8;stroke-linecap:round;stroke-linejoin:round;stroke-dasharray:none;stroke-opacity:1"
       d="m 50.042855,166.18419 v 18.74485"
       id="path4-5" /><path
       style="fill:#000000;fill-opacity:1;stroke:#000000;stroke-width:3.8;stroke-linecap:round;stroke-linejoin:round;stroke-dasharray:none;stroke-opacity:1"
       d="M 58.795985,160.21614 V 179.5578"
       id="path5-5" /><path
       id="path1-4-5"
       style="fill:none;stroke:#e32626;stroke-width:3.5;stroke-linecap:round;stroke-linejoin:round"
       transform="translate(-18.396548,151.98402)"
       d="M 84.703739,34.308787 66.447253,44.957842 a 5.1299052,5.1299052 179.74488 0 1 -5.129854,0.02284 L 42.966805,34.49463 A 5.1299054,5.1299054 59.744882 0 1 40.382096,30.063466 L 40.287989,8.9283597 A 5.1299056,5.1299056 119.74488 0 1 42.833134,4.4743545 L 61.08962,-6.1746991 a 5.1299054,5.1299054 179.74488 0 1 5.129854,-0.022842 l 18.350593,10.486053 a 5.1299056,5.1299056 59.744881 0 1 2.584709,4.4311635 l 0.09411,21.1351063 a 5.1299055,5.1299055 119.74488 0 1 -2.545145,4.454005 z" /><text
       xml:space="preserve"
       transform="matrix(0.28910083,0,0,0.26444406,40.865721,19.910096)"
       id="text5-8"
       style="font-weight:bold;font-size:45.9317px;font-family:Helvetica;-inkscape-font-specification:'Helvetica Bold';text-align:start;letter-spacing:19.5305px;writing-mode:lr-tb;direction:ltr;white-space:pre;shape-inside:url(#rect6-1);fill:#000000;fill-opacity:1;stroke:#000000;stroke-width:1.82642;stroke-linecap:round;stroke-linejoin:round;stroke-dasharray:none;stroke-opacity:1"><tspan
         x="140.9082"
         y="634.09717"
         id="tspan4"><tspan
           style="font-weight:normal;-inkscape-font-specification:Helvetica"
           id="tspan3">LOGTOOLS</tspan></tspan></text></g></svg>
