<?xml version="1.0" encoding="UTF-8" standalone="no"?>
<!-- Created with Inkscape (http://www.inkscape.org/) -->

<svg
   width="201.14418mm"
   height="70.104836mm"
   viewBox="0 0 201.14418 70.104836"
   version="1.1"
   id="svg1"
   xml:space="preserve"
   xmlns="http://www.w3.org/2000/svg"
   xmlns:svg="http://www.w3.org/2000/svg"><defs
     id="defs1"><rect
       x="140.90909"
       y="590.90912"
       width="434.84848"
       height="81.818184"
       id="rect6" /></defs><g
     id="layer1"
     transform="translate(-5.7206292,-68.233811)"><rect
       style="opacity:1;fill:#1a1a1a;fill-opacity:0;stroke:none;stroke-width:2.93164;stroke-linecap:round;stroke-linejoin:round;stroke-dasharray:none;stroke-opacity:1"
       id="rect5"
       width="201.14418"
       height="70.104836"
       x="5.7206297"
       y="68.23381" /><path
       class="cls-3"
       d="m 90.24515,85.581263 c 2.52845,-0.10284 5.00725,0.719882 6.97186,2.31568 l -1.3582,2.003613 c -1.5497,-1.187983 -3.45047,-1.829848 -5.40444,-1.822756 -4.50369,0 -7.21655,3.280251 -7.21655,7.383224 0,4.446956 3.04266,7.517986 7.06407,7.517986 2.0568,-0.0638 4.00367,-0.93266 5.42216,-2.42562 v -2.734132 h -3.11712 v -2.379511 h 5.56046 v 9.670533 h -2.36178 v -2.04262 h -0.0284 c -1.57097,1.53551 -3.69161,2.37597 -5.88672,2.33341 -5.15974,0 -9.42229,-4.07461 -9.42229,-9.932954 -0.12767,-5.33351 4.09588,-9.759189 9.42939,-9.886853 0.11702,0 0.23405,0 0.35107,0"
       id="path239-3"
       style="fill:#f9f9f9;stroke-width:0.354622" /><path
       class="cls-3"
       d="m 104.27043,85.911061 h 2.68804 v 12.38339 c 0,2.925629 1.89722,4.638449 4.82994,4.638449 2.93273,0 4.88669,-1.71282 4.88669,-4.695188 V 85.911061 h 2.73414 v 12.38339 c 0,4.255459 -3.06394,7.110169 -7.54635,7.110169 -4.48242,0 -7.54635,-2.85116 -7.54635,-7.110169 l -0.0461,-12.386936 z"
       id="path241-7"
       style="fill:#f9f9f9;stroke-width:0.354622" /><path
       class="cls-3"
       d="m 133.01607,95.088671 c 1.75892,0.124118 3.28025,-1.202167 3.40437,-2.961091 0.0106,-0.170218 0.0106,-0.343983 -0.007,-0.514202 0.078,-1.177344 -0.51066,-2.297948 -1.52133,-2.907898 -0.82627,-0.368806 -1.7341,-0.521293 -2.63484,-0.436184 h -3.09939 v 6.815829 h 3.85473 z m -6.52504,-9.17761 h 5.86899 c 1.20926,-0.08156 2.42561,0.06738 3.58168,0.436185 2.07454,0.861731 3.36891,2.946906 3.22706,5.184569 0.10638,2.294403 -1.28728,4.393763 -3.44338,5.18457 v 0.05319 c 0.21632,0.269513 0.40782,0.560302 0.57449,0.865277 l 4.05687,7.471878 h -3.04265 l -4.04624,-7.627911 h -4.10297 v 7.627911 h -2.73413 l 0.0638,-19.202764 z"
       id="path243-9"
       style="fill:#f9f9f9;stroke-width:0.354622" /><path
       class="cls-3"
       d="m 154.59835,102.89744 c 3.91148,0 7.05342,-3.255426 7.05342,-7.574718 0,-3.904385 -3.16677,-7.071157 -7.07115,-7.071157 -3.90439,0 -7.07116,3.166772 -7.07116,7.071157 0,4.319292 3.18096,7.610178 7.09243,7.610178 v -0.0355 z m 0,-17.316177 c 5.33351,-0.0922 9.73436,4.159713 9.82302,9.493223 0,0.09575 0,0.18795 0,0.283698 0,5.436346 -4.40795,9.844296 -9.8443,9.844296 -5.43635,0 -9.8443,-4.40795 -9.8443,-9.844296 -0.0496,-5.351242 4.24482,-9.73082 9.59607,-9.780467 0.0887,0 0.17731,0 0.26596,0"
       id="path245-0"
       style="fill:#f9f9f9;stroke-width:0.354622" /><path
       class="cls-3"
       d="m 177.52819,102.74141 c 1.67381,0.14185 3.14549,-1.10288 3.28734,-2.780236 0.0142,-0.156034 0.0142,-0.315614 0,-0.475194 0.0993,-1.719915 -1.21281,-3.191595 -2.93272,-3.290889 -0.12766,-0.0071 -0.25887,-0.0071 -0.38654,0 h -4.28383 v 6.542769 h 4.3122 z m -0.3298,-8.766251 c 1.51069,0.05319 2.77669,-1.127697 2.82988,-2.634839 0,-0.0922 0,-0.180857 -0.004,-0.273059 0.10639,-1.457495 -0.98584,-2.723495 -2.44334,-2.829881 -0.14185,-0.01064 -0.28724,-0.01064 -0.42909,0 h -3.96467 v 5.734233 h 4.01077 z m -6.6988,-8.067644 h 6.6988 c 3.23415,0 5.56756,1.822756 5.56756,4.886687 0.0638,1.719916 -0.86528,3.326352 -2.3866,4.127797 v 0.05319 c 1.97879,0.659597 3.27315,2.563915 3.15258,4.649091 0,3.64551 -2.79796,5.46827 -6.17041,5.46827 h -6.86193 V 85.911061 Z"
       id="path247-2"
       style="fill:#f9f9f9;stroke-width:0.354622" /><rect
       class="cls-3"
       x="189.87968"
       y="85.911079"
       width="2.6880324"
       height="19.202766"
       id="rect251-3"
       style="fill:#f9f9f9;stroke-width:0.354621" /><path
       style="opacity:1;fill:#ffffff;fill-opacity:1;stroke:#ffffff;stroke-width:3.8;stroke-linecap:round;stroke-linejoin:round;stroke-dasharray:none;stroke-opacity:1"
       d="M 32.04002,95.860542 V 111.62137"
       id="path2" /><path
       style="opacity:1;fill:#ffffff;fill-opacity:1;stroke:#ffffff;stroke-width:3.8;stroke-linecap:round;stroke-linejoin:round;stroke-dasharray:none;stroke-opacity:1"
       d="M 41.588893,89.494622 V 114.20752"
       id="path3" /><path
       style="fill:#ffffff;fill-opacity:1;stroke:#ffffff;stroke-width:2.5;stroke-linecap:round;stroke-linejoin:round;stroke-dasharray:none;stroke-opacity:1"
       d="M 68.048843,106.43405 H 24.238204"
       id="path3-3" /><path
       style="opacity:1;fill:#ffffff;fill-opacity:1;stroke:#ffffff;stroke-width:3.8;stroke-linecap:round;stroke-linejoin:round;stroke-dasharray:none;stroke-opacity:1"
       d="M 50.143093,97.452022 V 116.19687"
       id="path4" /><path
       style="opacity:1;fill:#ffffff;fill-opacity:1;stroke:#ffffff;stroke-width:3.8;stroke-linecap:round;stroke-linejoin:round;stroke-dasharray:none;stroke-opacity:1"
       d="M 58.896223,91.483972 V 110.82563"
       id="path5" /><path
       id="path1-4"
       style="fill:none;stroke:#e32626;stroke-width:3.5;stroke-linecap:round;stroke-linejoin:round"
       transform="translate(-18.29631,83.251852)"
       d="M 84.703739,34.308787 66.447253,44.957842 a 5.1299052,5.1299052 179.74488 0 1 -5.129854,0.02284 L 42.966805,34.49463 A 5.1299054,5.1299054 59.744882 0 1 40.382096,30.063466 L 40.287989,8.9283597 A 5.1299056,5.1299056 119.74488 0 1 42.833134,4.4743545 L 61.08962,-6.1746991 a 5.1299054,5.1299054 179.74488 0 1 5.129854,-0.022842 l 18.350593,10.486053 a 5.1299056,5.1299056 59.744881 0 1 2.584709,4.4311635 l 0.09411,21.1351063 a 5.1299055,5.1299055 119.74488 0 1 -2.545145,4.454005 z" /><text
       xml:space="preserve"
       transform="matrix(0.28910083,0,0,0.26444406,40.965959,-48.822072)"
       id="text5"
       style="font-weight:bold;font-size:45.9317px;font-family:Helvetica;-inkscape-font-specification:'Helvetica Bold';text-align:start;letter-spacing:19.5305px;writing-mode:lr-tb;direction:ltr;white-space:pre;shape-inside:url(#rect6);opacity:1;fill:#f9f9f9;fill-opacity:1;stroke:#ffffff;stroke-width:0.377953;stroke-linecap:round;stroke-linejoin:round;stroke-dasharray:none;stroke-opacity:1"><tspan
         x="140.9082"
         y="634.09717"
         id="tspan2"><tspan
           style="font-weight:normal;-inkscape-font-specification:Helvetica;fill:#ffffff"
           id="tspan1">LOGTOOLS</tspan></tspan></text></g></svg>
