<?xml version="1.0" encoding="UTF-8" standalone="no"?>
<!-- Created with Inkscape (http://www.inkscape.org/) -->

<svg
   width="349.07034mm"
   height="70.104836mm"
   viewBox="0 0 349.07034 70.104836"
   version="1.1"
   id="svg1"
   xml:space="preserve"
   xmlns="http://www.w3.org/2000/svg"
   xmlns:svg="http://www.w3.org/2000/svg"><defs
     id="defs1"><rect
       x="140.90909"
       y="590.90912"
       width="434.84848"
       height="81.818184"
       id="rect6" /></defs><g
     id="layer1"
     transform="translate(55.614597,-62.412973)"><rect
       style="opacity:1;fill:#0d1117;fill-opacity:1;stroke:none;stroke-width:3.86201;stroke-linecap:round;stroke-linejoin:round;stroke-dasharray:none;stroke-opacity:1"
       id="rect5"
       width="349.07031"
       height="70.104836"
       x="-55.614597"
       y="62.412971" /><path
       class="cls-3"
       d="m 101.88683,79.760426 c 2.52847,-0.10284 5.00728,0.719882 6.9719,2.31568 l -1.3582,2.003613 c -1.54971,-1.187983 -3.4505,-1.829848 -5.40448,-1.822756 -4.503696,0 -7.216556,3.280251 -7.216556,7.383224 0,4.446956 3.042658,7.517971 7.064076,7.517971 2.05681,-0.0638 4.0037,-0.932654 5.42219,-2.425608 v -2.734129 h -3.11713 V 89.61891 h 5.56049 v 9.670506 h -2.36179 v -2.042608 h -0.0284 c -1.57098,1.535501 -3.69164,2.375955 -5.88676,2.333395 -5.159746,0 -9.422296,-4.074586 -9.422296,-9.932924 -0.12767,-5.33351 4.09588,-9.759189 9.429396,-9.886853 0.11702,0 0.23405,0 0.35107,0"
       id="path239-3"
       style="fill:#f9f9f9;stroke-width:0.354622" /><path
       class="cls-3"
       d="m 115.91217,80.090224 h 2.68804 v 12.38339 c 0,2.925623 1.89722,4.638434 4.82994,4.638434 2.93273,0 4.88669,-1.712811 4.88669,-4.695173 V 80.090224 h 2.73414 v 12.38339 c 0,4.255447 -3.06394,7.110139 -7.54635,7.110139 -4.48242,0 -7.54635,-2.851142 -7.54635,-7.110139 l -0.0461,-12.386936 z"
       id="path241-7"
       style="fill:#f9f9f9;stroke-width:0.354622" /><path
       class="cls-3"
       d="m 144.65781,89.267834 c 1.75892,0.124118 3.28025,-1.202167 3.40437,-2.961091 0.0106,-0.170218 0.0106,-0.343983 -0.007,-0.514202 0.078,-1.177344 -0.51066,-2.297948 -1.52133,-2.907898 -0.82627,-0.368806 -1.7341,-0.521293 -2.63484,-0.436184 h -3.09939 v 6.815829 h 3.85473 z m -6.52504,-9.17761 h 5.86899 c 1.20926,-0.08156 2.42561,0.06738 3.58168,0.436185 2.07454,0.861731 3.36891,2.946906 3.22706,5.184569 0.10638,2.294403 -1.28728,4.393763 -3.44338,5.18457 v 0.05319 c 0.21632,0.269513 0.40782,0.560302 0.57449,0.865277 l 4.05687,7.471851 h -3.04265 l -4.04624,-7.627884 h -4.10297 v 7.627884 h -2.73413 l 0.0638,-19.202737 z"
       id="path243-9"
       style="fill:#f9f9f9;stroke-width:0.354622" /><path
       class="cls-3"
       d="m 166.24009,97.076588 c 3.91148,0 7.05342,-3.255411 7.05342,-7.574703 0,-3.904385 -3.16677,-7.071157 -7.07115,-7.071157 -3.90439,0 -7.07116,3.166772 -7.07116,7.071157 0,4.319292 3.18096,7.610163 7.09243,7.610163 v -0.0355 z m 0,-17.316162 c 5.33351,-0.0922 9.73436,4.159713 9.82302,9.493223 0,0.09575 0,0.18795 0,0.283698 0,5.436343 -4.40795,9.844269 -9.8443,9.844269 -5.43635,0 -9.8443,-4.407926 -9.8443,-9.844269 -0.0496,-5.351242 4.24482,-9.73082 9.59607,-9.780467 0.0887,0 0.17731,0 0.26596,0"
       id="path245-0"
       style="fill:#f9f9f9;stroke-width:0.354622" /><path
       class="cls-3"
       d="m 189.16993,96.920558 c 1.67381,0.14185 3.14549,-1.102874 3.28734,-2.780221 0.0142,-0.156034 0.0142,-0.315614 0,-0.475194 0.0993,-1.719915 -1.21281,-3.191595 -2.93272,-3.290889 -0.12766,-0.0071 -0.25887,-0.0071 -0.38654,0 h -4.28383 v 6.542754 h 4.3122 z m -0.3298,-8.766236 c 1.51069,0.05319 2.77669,-1.127697 2.82988,-2.634839 0,-0.0922 0,-0.180857 -0.004,-0.273059 0.10639,-1.457495 -0.98584,-2.723495 -2.44334,-2.829881 -0.14185,-0.01064 -0.28724,-0.01064 -0.42909,0 h -3.96467 v 5.734233 h 4.01077 z m -6.6988,-8.067644 h 6.6988 c 3.23415,0 5.56756,1.822756 5.56756,4.886687 0.0638,1.719916 -0.86528,3.326352 -2.3866,4.127797 v 0.05319 c 1.97879,0.659597 3.27315,2.563915 3.15258,4.649091 0,3.645492 -2.79796,5.468243 -6.17041,5.468243 h -6.86193 V 80.090224 Z"
       id="path247-2"
       style="fill:#f9f9f9;stroke-width:0.354622" /><rect
       class="cls-3"
       x="201.52119"
       y="80.09024"
       width="2.6880324"
       height="19.202766"
       id="rect251-3"
       style="fill:#f9f9f9;stroke-width:0.354621" /><path
       style="opacity:1;fill:#ffffff;fill-opacity:1;stroke:#ffffff;stroke-width:3.8;stroke-linecap:round;stroke-linejoin:round;stroke-dasharray:none;stroke-opacity:1"
       d="M 43.681694,90.039705 V 105.8005"
       id="path2" /><path
       style="opacity:1;fill:#ffffff;fill-opacity:1;stroke:#ffffff;stroke-width:3.8;stroke-linecap:round;stroke-linejoin:round;stroke-dasharray:none;stroke-opacity:1"
       d="M 53.230567,83.673785 V 108.38665"
       id="path3" /><path
       style="fill:#ffffff;fill-opacity:1;stroke:#ffffff;stroke-width:2.5;stroke-linecap:round;stroke-linejoin:round;stroke-dasharray:none;stroke-opacity:1"
       d="M 79.690517,100.61318 H 35.879878"
       id="path3-3" /><path
       style="opacity:1;fill:#ffffff;fill-opacity:1;stroke:#ffffff;stroke-width:3.8;stroke-linecap:round;stroke-linejoin:round;stroke-dasharray:none;stroke-opacity:1"
       d="M 61.784767,91.631185 V 110.376"
       id="path4" /><path
       style="opacity:1;fill:#ffffff;fill-opacity:1;stroke:#ffffff;stroke-width:3.8;stroke-linecap:round;stroke-linejoin:round;stroke-dasharray:none;stroke-opacity:1"
       d="M 70.537897,85.663135 V 105.00476"
       id="path5" /><path
       id="path1-4"
       style="fill:none;stroke:#e32626;stroke-width:3.5;stroke-linecap:round;stroke-linejoin:round"
       transform="translate(-6.6546381,77.431015)"
       d="M 84.703739,34.308787 66.447253,44.957842 a 5.1299052,5.1299052 179.74488 0 1 -5.129854,0.02284 L 42.966805,34.49463 A 5.1299054,5.1299054 59.744882 0 1 40.382096,30.063466 L 40.287989,8.9283597 A 5.1299056,5.1299056 119.74488 0 1 42.833134,4.4743545 L 61.08962,-6.1746991 a 5.1299054,5.1299054 179.74488 0 1 5.129854,-0.022842 l 18.350593,10.486053 a 5.1299056,5.1299056 59.744881 0 1 2.584709,4.4311635 l 0.09411,21.1351063 a 5.1299055,5.1299055 119.74488 0 1 -2.545145,4.454005 z" /><text
       xml:space="preserve"
       transform="matrix(0.28910083,0,0,0.26444406,52.607633,-54.642909)"
       id="text5"
       style="font-weight:bold;font-size:45.9317px;font-family:Helvetica;-inkscape-font-specification:'Helvetica Bold';text-align:start;letter-spacing:19.5305px;writing-mode:lr-tb;direction:ltr;white-space:pre;shape-inside:url(#rect6);display:inline;opacity:1;fill:#f9f9f9;fill-opacity:1;stroke:#ffffff;stroke-width:0.377953;stroke-linecap:round;stroke-linejoin:round;stroke-dasharray:none;stroke-opacity:1"><tspan
         x="140.9082"
         y="634.09717"
         id="tspan2"><tspan
           style="font-weight:normal;-inkscape-font-specification:Helvetica;fill:#ffffff"
           id="tspan1">LOGTOOLS</tspan></tspan></text></g></svg>
